# xmcd
# Copyright (C) 1995-1998 Ti Kan
#
# Track frame offsets:
#       150
#       12970
#       23449
#       43792
#       58673
#       72662
#
# Disc length: 1774 seconds
#
# Revision: 0
# Processed by: cddbd v1.5.2PL0 Copyright (c) Steve Scherf et al.
# Submitted via: CD-Import v1.0
#
DISCID=4a06ec06
DTITLE=Brian Jonestown Massacre - Bringing It All Back Home Again
DYEAR=1999
DGENRE=
TTITLE0=The Way It Was
TTITLE1=Mansion In The Sky
TTITLE2=Reign On
TTITLE3=The Godspell According To A.a. Newcombe
TTITLE4=All Things Great and Small
TTITLE5=Arkansas Revisited
EXTD=
EXTT0=
EXTT1=
EXTT2=
EXTT3=
EXTT4=
EXTT5=
PLAYORDER=
